<?xml version="1.0" encoding="UTF-8"?>
<svg width="600" height="400" viewBox="0 0 600 400" xmlns="http://www.w3.org/2000/svg">
  <defs>
    <linearGradient id="dashboard-gradient" x1="0%" y1="0%" x2="0%" y2="100%">
      <stop offset="0%" style="stop-color:#ffffff;stop-opacity:1" />
      <stop offset="100%" style="stop-color:#f3f4f6;stop-opacity:1" />
    </linearGradient>
    <linearGradient id="chart-gradient" x1="0%" y1="0%" x2="0%" y2="100%">
      <stop offset="0%" style="stop-color:#22c55e;stop-opacity:0.8" />
      <stop offset="100%" style="stop-color:#22c55e;stop-opacity:0.2" />
    </linearGradient>
  </defs>
  <!-- Dashboard Background -->
  <rect x="50" y="50" width="500" height="300" rx="8" fill="url(#dashboard-gradient)" stroke="#e5e7eb" stroke-width="1"/>
  
  <!-- Header -->
  <rect x="70" y="70" width="460" height="40" rx="4" fill="#f9fafb"/>
  <rect x="90" y="85" width="100" height="10" rx="2" fill="#d1d5db"/>
  <circle cx="500" cy="90" r="10" fill="#22c55e"/>
  
  <!-- Chart Area -->
  <rect x="70" y="130" width="300" height="180" rx="4" fill="#ffffff" stroke="#e5e7eb" stroke-width="1"/>
  
  <!-- Chart Bars -->
  <rect x="90" y="250" width="20" height="40" rx="2" fill="url(#chart-gradient)"/>
  <rect x="120" y="230" width="20" height="60" rx="2" fill="url(#chart-gradient)"/>
  <rect x="150" y="200" width="20" height="90" rx="2" fill="url(#chart-gradient)"/>
  <rect x="180" y="170" width="20" height="120" rx="2" fill="url(#chart-gradient)"/>
  <rect x="210" y="190" width="20" height="100" rx="2" fill="url(#chart-gradient)"/>
  <rect x="240" y="160" width="20" height="130" rx="2" fill="url(#chart-gradient)"/>
  <rect x="270" y="200" width="20" height="90" rx="2" fill="url(#chart-gradient)"/>
  <rect x="300" y="220" width="20" height="70" rx="2" fill="url(#chart-gradient)"/>
  
  <!-- Data Cards -->
  <rect x="390" y="130" width="140" height="80" rx="4" fill="#ffffff" stroke="#e5e7eb" stroke-width="1"/>
  <rect x="410" y="150" width="60" height="10" rx="2" fill="#d1d5db"/>
  <rect x="410" y="170" width="100" height="20" rx="2" fill="#86efac" opacity="0.6"/>
  
  <rect x="390" y="230" width="140" height="80" rx="4" fill="#ffffff" stroke="#e5e7eb" stroke-width="1"/>
  <rect x="410" y="250" width="60" height="10" rx="2" fill="#d1d5db"/>
  <rect x="410" y="270" width="80" height="20" rx="2" fill="#fbbf24" opacity="0.6"/>
</svg>
